<?xml version="1.0" encoding="UTF-8"?>
<svg id="Laag_1" data-name="Laag 1" xmlns="http://www.w3.org/2000/svg" viewBox="0 0 33.67 27.91">
  <defs>
    <style>
      .cls-1 {
        fill: rgba(229, 36, 33, .85);
      }

      .cls-1, .cls-2 {
        stroke-width: 0px;
      }
    </style>
  </defs>
  <path class="cls-2" d="M33.67,12.92v-1.81c-.53.25-1.05.56-1.62.91l-4.56,2.86-5.09.62c-3.01.36-4.78,2.1-4.78,4.7v2.21c0,1.9,1.02,2.94,2.87,2.94h3.3v-1.58h-3.21c-.92,0-1.38-.52-1.38-1.53v-2.03c0-1.74,1.22-2.86,3.4-3.13l5.42-.66,4.86-3.02c.26-.17.53-.33.78-.47ZM33.67,25.36v-1.58h-4.44v1.58h4.44ZM26.46,27.91c2.12,0,3.77-1.66,3.77-3.78s-1.65-3.78-3.77-3.78-3.78,1.66-3.78,3.78,1.66,3.78,3.78,3.78ZM26.46,26.33c-1.24,0-2.2-.96-2.2-2.2s.96-2.2,2.2-2.2,2.19.97,2.19,2.2-.95,2.2-2.19,2.2ZM6.79,27.91c2.12,0,3.78-1.66,3.78-3.78s-1.66-3.78-3.78-3.78-3.78,1.66-3.78,3.78,1.67,3.78,3.78,3.78ZM6.79,26.33c-1.23,0-2.2-.96-2.2-2.2s.97-2.2,2.2-2.2,2.2.97,2.2,2.2-.96,2.2-2.2,2.2ZM0,9.88v1.58h1.46c3.1,0,5.6,1.27,7.74,4.24l2.75.71c1.04.26,1.36.89,1.36,1.8v4.2c0,.86-.44,1.37-1.19,1.37h-2.71v1.58h2.97c1.57,0,2.52-.98,2.52-2.6v-4.55c0-1.55-.53-2.8-2.47-3.4l-2.32-.69c-1.44-1.72-3.96-4.24-8.64-4.24H0ZM0,23.77v1.58h4.05v-1.58H0Z"/>
  <path class="cls-1" d="M18.06.73l-.53,2.22L14.77.11c-.23-.24-.55-.06-.43.28l.98,2.9-1.27-.58c-.3-.14-.54.09-.31.39l.71.92-3.31-.46c-.39-.06-.51.33-.19.52l3.12,1.89-1.87.68c-.33.13-.28.51.08.54l2.07.15-2.82,1.9c-.29.21-.17.62.22.53l3.59-.81.04,3.04c0,.31.33.34.46.13l2.3-3.8,3.89,3.49c.29.26.65,0,.46-.37l-2.29-4.3,2.34-.69c.21-.07.21-.34,0-.42l-2.08-.85,1.49-4.23c.1-.28-.19-.52-.42-.27l-2.41,2.28-.59-2.24c-.09-.31-.42-.33-.5,0Z"/>
</svg>