<?xml version="1.0" encoding="UTF-8"?>
<svg id="Laag_1" data-name="Laag 1" xmlns="http://www.w3.org/2000/svg" viewBox="0 0 58.58 45.9">
  <defs>
    <style>
      .cls-1 {
        fill: #5cb24a;
        stroke-width: 0px;
      }
    </style>
  </defs>
  <path class="cls-1" d="M10.01,14.26c.64-2.95,1.84-6.4,2.66-7.84.7-1.2,1.53-1.82,3.03-2.02,1.92-.27,6.25-.43,13.6-.43s11.68.12,13.6.43c1.49.21,2.31.81,3.03,2.02.83,1.42,1.96,4.89,2.66,7.84.21.85-.14,1.26-1.09,1.18-4.23-.27-9.12-.5-18.2-.5s-13.97.23-18.2.5c-.95.08-1.28-.33-1.09-1.18ZM11.25,32.32c-2.19,0-3.84-1.63-3.84-3.82s1.65-3.82,3.84-3.82,3.82,1.65,3.82,3.82-1.65,3.82-3.82,3.82ZM22.79,31.48c-1.63,0-2.74-1.13-2.74-2.74s1.11-2.75,2.74-2.75h13c1.63,0,2.75,1.13,2.75,2.75s-1.13,2.74-2.75,2.74h-13ZM47.35,32.32c-2.19,0-3.84-1.63-3.84-3.82s1.65-3.82,3.84-3.82,3.82,1.65,3.82,3.82-1.65,3.82-3.82,3.82ZM29.29,39.13c8.3,0,19.46-.43,24.19-.97,3.26-.37,5.1-2.11,5.1-5.26v-4.4c0-4.29-.91-6.58-3.12-9.45l-2.13-2.77c-.91-4.5-2.58-9.25-3.45-11.1-1.32-2.81-3.9-4.38-7.08-4.81-1.69-.23-7.24-.37-13.5-.37s-11.81.16-13.5.37c-3.18.39-5.76,2-7.08,4.81-.87,1.84-2.52,6.6-3.45,11.1l-2.13,2.77c-2.21,2.87-3.12,5.16-3.12,9.45v4.4c0,3.14,1.84,4.89,5.1,5.26,4.73.54,15.89.97,24.19.97ZM3.26,45.9h2.91c1.84,0,3.26-1.42,3.26-3.24v-6.13L0,32.01v10.65c0,1.82,1.42,3.24,3.26,3.24ZM52.41,45.9h2.91c1.84,0,3.26-1.42,3.26-3.24v-10.65l-9.43,4.52v6.13c0,1.82,1.42,3.24,3.26,3.24Z"/>
</svg>